<svg width="24" height="24" viewBox="0 0 24 24" fill="none" xmlns="http://www.w3.org/2000/svg">
<path fill-rule="evenodd" clip-rule="evenodd" d="M11.9993 19.8534C10.9887 19.1854 9.39614 18.062 7.8312 16.674C6.23989 15.2626 4.7964 13.6815 3.96881 12.1223L3.96861 12.122C1.89592 8.21903 4.50174 5.22101 6.71724 5.22101C8.21056 5.22101 9.06499 5.95817 9.58282 6.655C9.85988 7.03287 10.2217 7.34057 10.6393 7.55331C11.0607 7.76796 11.5269 7.87986 11.9997 7.87986C12.4726 7.87986 12.9388 7.76796 13.3601 7.55331C13.7778 7.34057 14.1396 7.03287 14.4167 6.655C14.9345 5.95818 15.7889 5.22101 17.2822 5.22101C19.4977 5.22101 22.1034 8.21885 20.0321 12.1216M12.8062 5.46901C13.5762 4.43001 14.9682 3.22101 17.2822 3.22101C21.3422 3.22101 24.4132 8.13401 21.7982 13.06C19.8142 16.794 15.2092 20.131 13.0942 21.527C12.4292 21.967 11.5702 21.967 10.9042 21.527C8.79124 20.131 4.18424 16.794 2.20224 13.06C-0.413756 8.13401 2.65724 3.22101 6.71724 3.22101C9.03124 3.22101 10.4232 4.43001 11.1932 5.46901C11.2857 5.59626 11.407 5.69982 11.5472 5.77123C11.6874 5.84264 11.8424 5.87986 11.9997 5.87986C12.1571 5.87986 12.3121 5.84264 12.4523 5.77123C12.5925 5.69982 12.7138 5.59626 12.8062 5.46901ZM11.9993 19.8534C13.0101 19.1859 14.603 18.0623 16.1683 16.674C17.7593 15.2629 19.2029 13.6817 20.0317 12.1222" fill="#ADAFBB"/>
</svg>
