<svg width="24" height="24" viewBox="0 0 24 24" fill="none" xmlns="http://www.w3.org/2000/svg">
<path fill-rule="evenodd" clip-rule="evenodd" d="M10.9042 21.527C11.5702 21.967 12.4292 21.967 13.0942 21.527C15.2092 20.131 19.8142 16.794 21.7982 13.06C24.4132 8.13401 21.3422 3.22101 17.2822 3.22101C14.9682 3.22101 13.5762 4.43001 12.8062 5.46901C12.7138 5.59626 12.5925 5.69982 12.4523 5.77123C12.3121 5.84264 12.1571 5.87986 11.9997 5.87986C11.8424 5.87986 11.6874 5.84264 11.5472 5.77123C11.407 5.69982 11.2857 5.59626 11.1932 5.46901C10.4232 4.43001 9.03124 3.22101 6.71724 3.22101C2.65724 3.22101 -0.413756 8.13401 2.20224 13.06C4.18424 16.794 8.79124 20.131 10.9042 21.527Z" fill="#ADAFBB"/>
</svg>
