<svg width="24" height="24" viewBox="0 0 24 24" fill="none" xmlns="http://www.w3.org/2000/svg">
<path fill-rule="evenodd" clip-rule="evenodd" d="M8.6248 20.1C8.2798 20.1 7.9348 19.965 7.6648 19.71C7.41291 19.457 7.27148 19.1145 7.27148 18.7575C7.27148 18.4005 7.41291 18.058 7.6648 17.805L13.4698 12L7.6648 6.21C7.41291 5.957 7.27148 5.61452 7.27148 5.2575C7.27148 4.90048 7.41291 4.558 7.6648 4.305C7.9178 4.0531 8.26028 3.91168 8.6173 3.91168C8.97432 3.91168 9.3168 4.0531 9.5698 4.305L16.3198 11.055C16.5717 11.308 16.7131 11.6505 16.7131 12.0075C16.7131 12.3645 16.5717 12.707 16.3198 12.96L9.5698 19.71C9.3148 19.965 8.9698 20.1 8.6248 20.1Z" fill="#ADAFBB"/>
</svg>
