<svg width="24" height="24" viewBox="0 0 24 24" fill="none" xmlns="http://www.w3.org/2000/svg">
<path fill-rule="evenodd" clip-rule="evenodd" d="M15.375 20.1C15.1977 20.1001 15.0222 20.0652 14.8584 19.9972C14.6947 19.9292 14.546 19.8296 14.421 19.704L7.67095 12.954C7.54555 12.8286 7.44607 12.6798 7.3782 12.516C7.31032 12.3522 7.27539 12.1766 7.27539 11.9993C7.27539 11.8219 7.31032 11.6464 7.3782 11.4825C7.44607 11.3187 7.54555 11.1699 7.67095 11.0445L14.421 4.29451C14.5453 4.16478 14.6944 4.0612 14.8593 3.98983C15.0242 3.91846 15.2018 3.88074 15.3815 3.87889C15.5612 3.87703 15.7395 3.91108 15.9058 3.97903C16.0722 4.04698 16.2233 4.14747 16.3504 4.2746C16.4774 4.40173 16.5778 4.55294 16.6456 4.71937C16.7134 4.8858 16.7473 5.0641 16.7453 5.24381C16.7433 5.42351 16.7055 5.60101 16.634 5.7659C16.5625 5.93078 16.4588 6.07973 16.329 6.20401L10.5345 12L16.329 17.7945C16.518 17.9832 16.6469 18.2238 16.6992 18.4858C16.7514 18.7477 16.7248 19.0193 16.6227 19.2662C16.5205 19.513 16.3475 19.724 16.1254 19.8724C15.9032 20.0209 15.6421 20.1001 15.375 20.1Z" fill="#ADAFBB"/>
</svg>
