<svg width="16" height="16" viewBox="0 0 16 16" fill="none" xmlns="http://www.w3.org/2000/svg">
<path fill-rule="evenodd" clip-rule="evenodd" d="M8.08372 6.15002C7.01706 6.15002 6.15039 7.01669 6.15039 8.08336C6.15039 9.15002 7.01706 10.0167 8.08372 10.0167C9.15039 10.0167 10.0171 9.15002 10.0171 8.08336C10.0171 7.01669 9.15039 6.15002 8.08372 6.15002Z" fill="#ADAFBB"/>
<path fill-rule="evenodd" clip-rule="evenodd" d="M8.08333 11.4167C6.21667 11.4167 4.75 9.88335 4.75 8.08335C4.75 6.28335 6.28333 4.75001 8.08333 4.75001C9.88333 4.75001 11.4167 6.28335 11.4167 8.08335C11.4167 9.88335 9.95 11.4167 8.08333 11.4167ZM15.4167 7.21668C13.6833 4.55001 10.95 2.95001 8.08333 2.95001C5.21667 2.95001 2.48333 4.55001 0.75 7.21668C0.416667 7.75001 0.416667 8.41668 0.75 8.95001C2.48333 11.6167 5.21667 13.2167 8.08333 13.2167C10.95 13.2167 13.6833 11.6167 15.4167 8.95001C15.8167 8.41668 15.8167 7.75001 15.4167 7.21668Z" fill="#ADAFBB"/>
</svg>
